<svg xmlns="http://www.w3.org/2000/svg" fill="none" viewBox="0 0 26 26">
  <g filter="url(#filter0_d)" opacity=".5">
    <circle cx="13" cy="12" r="8" fill="url(#paint0_radial)"/>
  </g>
  <path fill="#E25B28" d="M11.354 11.646a.5.5 0 00-.708.708l.708-.708zM13 14l-.354.354a.5.5 0 00.708 0L13 14zm3.354-2.646a.5.5 0 00-.708-.708l.708.708zm-5.708 1l2 2 .708-.708-2-2-.708.708zm2.708 2l3-3-.708-.708-3 3 .708.708z"/>
  <defs>
    <radialGradient id="paint0_radial" cx="0" cy="0" r="1" gradientTransform="matrix(-11.49687 -2.4979 3.88847 -17.89715 12.997 11.998)" gradientUnits="userSpaceOnUse">
      <stop stop-color="#ECA233" stop-opacity=".95"/>
      <stop offset=".014" stop-color="#EB9E32" stop-opacity=".9"/>
      <stop offset=".139" stop-color="#E68228" stop-opacity=".8"/>
      <stop offset=".274" stop-color="#E26C21" stop-opacity=".6"/>
      <stop offset=".421" stop-color="#DF5C1B" stop-opacity=".4"/>
      <stop offset=".589" stop-color="#DE5318" stop-opacity=".2"/>
      <stop offset=".823" stop-color="#DD5017" stop-opacity="0"/>
    </radialGradient>
    <filter id="filter0_d" width="26" height="26" x="0" y="0" color-interpolation-filters="sRGB" filterUnits="userSpaceOnUse">
      <feFlood flood-opacity="0" result="BackgroundImageFix"/>
      <feColorMatrix in="SourceAlpha" values="0 0 0 0 0 0 0 0 0 0 0 0 0 0 0 0 0 0 127 0"/>
      <feOffset dy="1"/>
      <feGaussianBlur stdDeviation="2.5"/>
      <feColorMatrix values="0 0 0 0 0.854902 0 0 0 0 0.592157 0 0 0 0 0.207843 0 0 0 0.3 0"/>
      <feBlend in2="BackgroundImageFix" result="effect1_dropShadow"/>
      <feBlend in="SourceGraphic" in2="effect1_dropShadow" result="shape"/>
    </filter>
  </defs>
</svg>
