<svg xmlns="http://www.w3.org/2000/svg" fill="none" viewBox="0 0 84 64">
  <path stroke="#E15C28" stroke-linecap="round" stroke-linejoin="round" stroke-miterlimit="10" stroke-width="3" d="M12 36h43M12 43h43M12 50h20M64.036 50.225H71.7M2 55.475V8.525C2 4.925 5.114 2 8.946 2h66.108C78.886 2 82 4.925 82 8.525v46.95c0 3.6-3.114 6.525-6.946 6.525H8.946C5.114 62 2 59.075 2 55.475z"/>
  <path stroke="#E15C28" stroke-linecap="round" stroke-linejoin="round" stroke-miterlimit="10" stroke-width="3" d="M12.539 28.175c0-5.025 4.391-9.15 9.74-9.15 5.35 0 9.74 4.125 9.74 9.15M22.12 19.025c2.645 0 4.79-2.015 4.79-4.5s-2.145-4.5-4.79-4.5c-2.646 0-4.79 2.015-4.79 4.5s2.144 4.5 4.79 4.5zM66.99 25.925h-3.273c-1.677 0-3.034-1.275-3.034-2.85V20.9c0-1.575 1.357-2.85 3.034-2.85h3.273c1.677 0 3.034 1.275 3.034 2.85v2.175c0 1.575-1.357 2.85-3.034 2.85z"/>
</svg>
