<svg xmlns="http://www.w3.org/2000/svg" fill="none" viewBox="0 0 84 63">
  <path stroke="#E15C28" stroke-linecap="round" stroke-linejoin="round" stroke-miterlimit="10" stroke-width="3" d="M16.212 35.025h47.824M16.212 42.9h47.824M16.212 49.725h22.116M2 54.975V8.025C2 4.425 5.114 1.5 8.946 1.5h66.108C78.886 1.5 82 4.425 82 8.025v46.95c0 3.6-3.114 6.525-6.946 6.525H8.946C5.114 61.5 2 58.575 2 54.975z"/>
  <path stroke="#E15C28" stroke-linecap="round" stroke-linejoin="round" stroke-miterlimit="10" stroke-width="3" d="M33.457 27.675c0-5.025 4.391-9.15 9.74-9.15 5.35 0 9.74 4.125 9.74 9.15M43.118 18.525c2.645 0 4.79-2.015 4.79-4.5s-2.145-4.5-4.79-4.5c-2.646 0-4.79 2.015-4.79 4.5s2.144 4.5 4.79 4.5z"/>
</svg>
