<svg xmlns="http://www.w3.org/2000/svg" fill="none" viewBox="0 0 209 96">
  <path fill="url(#paint0_linear)" d="M198.102 87.314c-1.363 0-2.725-.571-3.86-1.485L144.858 44.57l41.437-34.514a5.667 5.667 0 013.86-1.486h16.461V0h-16.348c-3.405 0-6.698 1.257-9.309 3.429L138.274 38.97 95.588 3.43C92.864 1.143 89.571 0 86.28 0H54.833v8.571h15.326c.227.115.34.229.567.343l51.881 43.429-40.301 33.486a5.666 5.666 0 01-3.86 1.485H43.821l-.795-73.943C43.026 4.686 36.67 0 32.128 0H0v8.571h23.273v78.743H0V96H78.332c3.406 0 6.698-1.257 9.31-3.429l41.55-34.628L170.969 92.8c2.498 2.057 5.336 3.2 8.401 3.2H209v-8.571h-10.898v-.115zm-169.153 0V8.571h3.065c.454.115 2.498 1.372 2.498 4.8l.794 73.943H28.95zm145.766 1.029L79.127 8.57h7.039c1.362 0 2.724.572 3.86 1.486l95.815 80.114h-6.471a6.882 6.882 0 01-4.655-1.828z"/>
  <defs>
    <linearGradient id="paint0_linear" x1="-37.402" x2="324.035" y1="129.418" y2="-75.293" gradientUnits="userSpaceOnUse">
      <stop offset=".229" stop-color="#DE5118"/>
      <stop offset=".5" stop-color="#EDA334"/>
      <stop offset=".956" stop-color="#DE1F73"/>
    </linearGradient>
  </defs>
</svg>
