<svg xmlns="http://www.w3.org/2000/svg" xmlns:xlink="http://www.w3.org/1999/xlink" viewBox="0 0 119.2 30"><defs><style>.cls-1{fill:url(#linear-gradient);}</style><linearGradient id="linear-gradient" y1="17" x2="119.2" y2="17" gradientTransform="matrix(1, 0, 0, -1, 0, 32)" gradientUnits="userSpaceOnUse"><stop offset="0" stop-color="#ea5d1f"/><stop offset="0.49" stop-color="#e69f3f"/><stop offset="1" stop-color="#e4612a"/></linearGradient></defs><title>Asset 1</title><g id="Layer_2" data-name="Layer 2"><g id="Layer_1-2" data-name="Layer 1"><path class="cls-1" d="M20.36,30v-.81c0-.09,0-.15-.13-.15H15.3c-.14,0-.21,0-.19.21s0,.39,0,.58S15,30,14.92,30H.62L.19,30C.05,30,0,29.92,0,29.79c0-.77,0-1.54,0-2.3,0,0,0-.07,0-.1s.1-.12.14-.12c.47,0,.93,0,1.4,0s.89,0,1.34,0A1.09,1.09,0,0,0,4,26.35C4,26,4,4.86,4,4a1.32,1.32,0,0,0-.19-.81,1.13,1.13,0,0,0-1-.5H0V2.56C0,1.8,0,1,0,.26,0,.08.07,0,.24.05a2,2,0,0,0,.35,0H43c.42,0,.84,0,1.25,0a4,4,0,0,1,2,.67c.68.49,1.31,1,2,1.55L60,12l.28.22c.16-.11.32-.22.48-.35.75-.63,1.49-1.27,2.25-1.89l8.22-6.8c.47-.4,1-.77,1.43-1.16s.84-.72,1.28-1.06A4.52,4.52,0,0,1,76.75,0L81.2,0h.93c.42,0,.32,0,.38.39,0,.14,0,.28,0,.42a.19.19,0,0,0,.13.14c.07,0,3.41,0,5,0,.2,0,.25-.06.24-.25s0-.46,0-.71c.25,0,.49,0,.73,0H119c.15,0,.22,0,.22.21,0,2.33,0,4.67,0,7,0,.14,0,.18-.19.18h-2.87c-.35,0-.37,0-.44-.36L114.7,3a.29.29,0,0,0-.33-.26c-5.07,0-10.12,0-15.18,0a1,1,0,0,0-1,1c0,.69,0,6.94,0,9.31,0,.16,0,.31,0,.47s0,.19.19.19h8a.27.27,0,0,0,.29-.19c.32-.86.66-1.7,1-2.56a1.8,1.8,0,0,1,.2-.47.46.46,0,0,1,.33-.11h2.34c0,.23,0,6.22,0,9,0,.37,0,.37-.38.37h-1.83c-.41,0-.4,0-.55-.39-.32-.77-.63-1.54-.94-2.32-.08-.21-.11-.5-.27-.61s-.44,0-.67,0H98.47c-.26,0-.26,0-.26.26,0,.64.14,9.63.16,9.89a1.23,1.23,0,0,0,.74.74,4.53,4.53,0,0,0,.53.05h3.11c.19,0,.24.06.23.24q0,1.14,0,2.28c0,.13,0,.19-.18.19-1.61,0-3.22,0-4.82,0l-20.59,0H72.86a5.31,5.31,0,0,1-2.59-1.23c-.69-.55-12.5-10.37-12.64-10.49s-.15-.11-.25,0L56,19.29,54,21,46,27.58c-.42.34-1.71,1.42-2,1.58a4.81,4.81,0,0,1-1.29.62,6.08,6.08,0,0,1-1.9.18c-3.36,0-6.72,0-10.08,0H20.36Zm0-1.79a1.2,1.2,0,0,0,0-.2,5,5,0,0,0,0-.55c0-.12.07-.16.17-.16H34.26c2.35,0,4.71,0,7.06,0a1.78,1.78,0,0,0,.8-.14C42.48,27,53.38,18,53.8,17.63l1.43-1.17c.1-.08.11-.12,0-.2l-1.11-.94C53.3,14.63,39.69,3.32,39.25,3a.87.87,0,0,0-.45-.24c-2.44,0-4.9,0-7.34,0-.13,0-.17,0-.17.17,0,1.45,0,2.88,0,4.33,0,.17-.06.23-.23.23H28.18c-.23,0-.29-.06-.35-.29-.15-.62-.29-1.24-.45-1.86-.2-.79-.42-1.58-.6-2.36,0-.17-.09-.2-.24-.2H11.31a.53.53,0,0,0-.18,0,1.19,1.19,0,0,0-.92,1.22c0,.42,0,.84,0,1.26,0,1.18,0,2.37,0,3.56,0,1.56,0,3.11,0,4.67,0,.18.06.22.22.22h8a.23.23,0,0,0,.24-.18c.4-1,.81-2,1.2-3a.22.22,0,0,1,.25-.16h2.24c.24,0,.25,0,.25.25v8.8c0,.05,0,.12,0,.16s-.1.12-.16.13c-.54,0-1.08,0-1.63,0-.27,0-.53,0-.78,0a.18.18,0,0,1-.14-.08l-.15-.36c-.35-.87-.7-1.74-1-2.62-.09-.21-.19-.33-.43-.26a1.49,1.49,0,0,1-.21,0H10.56c-.14,0-.21,0-.21.18l0,1.67c0,1.25,0,2.51,0,3.77s0,2.79,0,4.19a1.06,1.06,0,0,0,.84,1.09,3.44,3.44,0,0,0,.72.05h2.7c.38,0,.38,0,.38.38s0,.52.52.51h4.35A2.55,2.55,0,0,1,20.33,28.19ZM82.52,2.71H76.7a1.67,1.67,0,0,0-.92.25c-.4.27-12.72,10.47-13.29,10.91-.09.07-.07.1,0,.16s.28.2.4.31L76.7,25.83c.4.34.79.68,1.21,1a2.24,2.24,0,0,0,1.44.46c1,0,1.91,0,2.87,0,2.7,0,5.4,0,8.1,0a5.8,5.8,0,0,0,.59,0,1.12,1.12,0,0,0,1-1V3.82a1.13,1.13,0,0,0-1.15-1.11H87.89V1.86H82.52ZM75.26,28.13l-.7-.56L62.84,17.83l-1.55-1.28c-.3-.24-.59-.51-.89-.75L45.26,3.25a2,2,0,0,0-1.21-.54c-.65,0-1.3,0-1.95,0a.7.7,0,0,0-.18,0,.46.46,0,0,0,.11.16c.63.54,14.75,12.22,15.19,12.58L59.05,17l1.29,1.1L69.83,26c.65.54,1.3,1.1,2,1.63a2,2,0,0,0,1.28.53c.64,0,1.29,0,1.93,0A.81.81,0,0,0,75.26,28.13ZM5.8,27.26h.43l1.34,0c.15,0,.21,0,.2-.19,0-1.07,0-2.14,0-3.21s0-2,0-2.93c0-1.47,0-2.93,0-4.4,0-1.11,0-2.22,0-3.32s0-2.07-.05-3.11c0-1.94,0-3.88,0-5.84a2,2,0,0,0-.33-1.21.78.78,0,0,0-.54-.37c-.23,0-.46,0-.69,0s-.17,0-.17.16V18Q5.81,22.61,5.8,27.26ZM93.69,15v2.1q0,5,0,10c0,.16,0,.21.21.21.5,0,1,0,1.51,0,.22,0,.26-.08.26-.27,0-.62,0-1.23,0-1.86,0-1.2,0-2.39,0-3.59s0-2.64,0-3.95v-2c0-.51,0-1,0-1.53,0-1.15,0-2.29,0-3.44,0-.93,0-1.87,0-2.8s0-2.15,0-3.23a2.76,2.76,0,0,0-.23-1.3.83.83,0,0,0-.61-.54,5.58,5.58,0,0,0-.71,0c-.11,0-.16,0-.16.16,0,.28,0,.57,0,.85Zm15.66,0h0V11.79a1.21,1.21,0,0,0,0-.19.17.17,0,0,0-.18-.16.52.52,0,0,0-.6.41c-.06.16-.11.32-.16.48-.16.56-.34,1.13-.49,1.7a5.06,5.06,0,0,0-.17.93,2.45,2.45,0,0,0,.12.7c.14.53.29,1.06.43,1.58.08.27.14.55.24.81a1,1,0,0,0,.32.42.31.31,0,0,0,.5-.29C109.34,17.11,109.35,16,109.35,15ZM21.48,15h0V11.7a.23.23,0,0,0,0-.17.54.54,0,0,0-.69.21c-.16.5-.3,1-.45,1.48-.1.34-.19.68-.29,1a2.25,2.25,0,0,0-.06,1.26c.16.59.33,1.18.5,1.77q.15.51.33,1a.48.48,0,0,0,.57.22c.19,0,.14-.21.14-.33C21.49,17.11,21.48,16,21.48,15ZM30,2.71h-.6c-.34,0-.69,0-1,0a.25.25,0,0,0-.15.1c.12.6.25,1.19.37,1.78s.22,1,.32,1.54c0,.11.06.15.18.15h.77c.11,0,.16,0,.16-.16C30,5,30,3.87,30,2.71Zm87,0h-.73c-.09,0-.17,0-.14.14s.11.56.17.83.2.83.29,1.24.15.8.24,1.19c0,0,.08.13.13.13h.82s.1-.08.11-.12c0-.42,0-.84,0-1.26,0-.63,0-1.25,0-1.86,0-.27,0-.29-.26-.29Z"/></g></g></svg>