<svg xmlns="http://www.w3.org/2000/svg" fill="none" viewBox="0 0 64 83">
  <path stroke="#E15C28" stroke-linecap="round" stroke-linejoin="round" stroke-miterlimit="10" stroke-width="3" d="M55.475 80.72H8.525C4.925 80.72 2 77.644 2 73.857V8.516C2 4.73 4.925 1.651 8.525 1.651h46.95c3.6 0 6.525 3.078 6.525 6.865v65.34c0 3.787-2.925 6.865-6.525 6.865z"/>
  <path fill="#E15C28" stroke="#E15C28" stroke-width=".5" d="M18.65 10.647v.553c0 .947-.675 1.657-1.575 1.657h-.9v2.367c0 .158-.15.395-.375.395-.15 0-.375-.158-.375-.395V9.306c0-.158.15-.395.375-.395H17c.9.079 1.65.79 1.65 1.736zm-.675 0c0-.552-.375-.947-.9-.947h-.9v2.525h.9c.525 0 .9-.394.9-.947v-.63zM22.7 15.224c0 .158-.15.395-.375.395-.15 0-.375-.158-.375-.395v-1.263c-.075.08-.15.08-.225.08-.225.157-.45.157-.675.157-.3 0-.6-.079-.9-.315v1.262c0 .158-.15.395-.375.395-.15 0-.375-.158-.375-.395V12.62v-2.052c0-.947.675-1.657 1.575-1.657.825 0 1.725.59 1.725 1.657v4.656zm-.675-2.604v-1.973c0-.552-.375-.947-.9-.947s-.9.395-.9.947v1.973c0 .158 0 .316.075.395.225.473.75.63 1.2.394.3-.079.525-.473.525-.789zM27.425 13.725c-.075 1.026-.9 1.894-1.875 1.894h-.15c-1.05-.08-1.875-1.026-1.8-2.131 0-.158.15-.316.375-.316.15 0 .3.158.3.395a1.3 1.3 0 001.125 1.42c.675.08 1.275-.473 1.35-1.183 0-.395-.075-.79-.3-1.026-.225-.237-.45-.395-.825-.395 0 0-.45 0-.9-.237-.6-.315-.975-.868-.9-1.499 0-.394.225-.868.525-1.105.3-.315.75-.473 1.2-.394.675.079 1.2.552 1.425 1.262.075.158-.075.395-.225.474-.15.079-.375-.08-.45-.237-.075-.394-.45-.71-.825-.71-.225 0-.45.079-.675.237-.15.158-.3.394-.3.63 0 .553.3.711.525.869.3.158.6.158.6.158.525 0 .975.237 1.35.631.3.079.45.631.45 1.263zM32.15 13.725c-.075 1.026-.9 1.894-1.875 1.894h-.15c-1.05-.08-1.875-1.026-1.8-2.131 0-.158.15-.316.375-.316.15 0 .3.158.3.395a1.3 1.3 0 001.125 1.42c.675.08 1.275-.473 1.35-1.183 0-.395-.075-.79-.3-1.026-.225-.237-.45-.395-.825-.395 0 0-.45 0-.9-.237-.6-.315-.975-.868-.9-1.499 0-.394.225-.868.525-1.105.3-.315.75-.473 1.2-.394.675.079 1.2.552 1.425 1.262.075.158-.075.395-.225.474-.15.079-.375-.08-.45-.237-.075-.394-.45-.71-.825-.71-.225 0-.45.079-.675.237-.15.158-.3.394-.3.63 0 .553.3.711.525.869.3.158.6.158.6.158.525 0 .975.237 1.35.631.3.079.45.631.45 1.263zM36.2 10.647v.553c0 .947-.675 1.657-1.575 1.657h-.9v2.367c0 .158-.15.395-.375.395-.15 0-.375-.158-.375-.395V9.306c0-.158.15-.395.375-.395h1.2c.975.079 1.65.79 1.65 1.736zm-.675 0c0-.552-.375-.947-.9-.947h-.9v2.525h.9c.525 0 .9-.394.9-.947v-.63zM40.25 10.649v3.314c0 .947-.675 1.657-1.575 1.657-.825 0-1.575-.79-1.575-1.657v-3.314c0-.947.675-1.658 1.575-1.658.9 0 1.575.71 1.575 1.658zm-.675 0c0-.553-.375-.947-.9-.947s-.9.394-.9.947v3.314c0 .552.375.947.9.947s.9-.395.9-.947v-3.314zM44.3 15.226c0 .157-.15.394-.375.394-.15 0-.375-.158-.375-.394v-1.342c0-.552-.375-.947-.9-.947h-.9v2.367c0 .158-.15.395-.375.395-.15 0-.375-.158-.375-.395V9.386c0-.158.15-.395.375-.395h1.2c.825 0 1.575.79 1.575 1.658v.552c0 .552-.225 1.026-.6 1.341.375.316.75.79.75 1.342v1.341zm-2.475-5.524v2.525h.9c.525 0 .9-.395.9-.947v-.553c0-.552-.375-.946-.9-.946h-.9V9.7zM48.2 8.991h-2.7c-.15 0-.375.158-.375.395 0 .158.15.395.375.395h.9v5.523c0 .158.15.395.375.395s.375-.158.375-.395V9.781h1.05c.15 0 .375-.158.375-.395-.075-.237-.225-.395-.375-.395z"/>
  <path stroke="#E15C28" stroke-linecap="round" stroke-linejoin="round" stroke-miterlimit="10" stroke-width="3" d="M32 54.838c7.58 0 13.725-6.466 13.725-14.441 0-7.975-6.145-14.44-13.725-14.44s-13.725 6.465-13.725 14.44S24.42 54.837 32 54.837z"/>
  <path stroke="#E15C28" stroke-linecap="round" stroke-linejoin="round" stroke-miterlimit="10" stroke-width="3" d="M32 54.838c4.473 0 8.1-6.466 8.1-14.441 0-7.975-3.627-14.44-8.1-14.44-4.474 0-8.1 6.465-8.1 14.44s3.626 14.44 8.1 14.44zM32 25.956v28.882M18.275 40.397h27.45M14.075 65.333h35.85M21.65 71.962h20.7"/>
</svg>
