<svg width="17" height="16" viewBox="0 0 17 16" fill="none" xmlns="http://www.w3.org/2000/svg">
<path d="M16.7597 9.93438C15.6929 14.2225 11.3518 16.8309 7.06285 15.7612C2.77697 14.6915 0.168043 10.3512 1.23798 6.06618C2.30792 1.77806 6.64898 -0.827305 10.9349 0.239361C15.2207 1.30909 17.8297 5.64932 16.7597 9.93438Z" fill="#F7931A"/>
<path d="M12.5272 6.85981C12.6866 5.7962 11.8773 5.22302 10.7675 4.83988L11.1262 3.39927L10.2494 3.18164L9.89987 4.58548C9.66688 4.52724 9.43082 4.47207 9.19782 4.41996L9.55038 3.00693L8.67359 2.78931L8.3149 4.22992C8.12482 4.18701 7.93781 4.1441 7.75387 4.09812V4.09505L6.54291 3.79161L6.30992 4.72954C6.30992 4.72954 6.95985 4.87973 6.94759 4.88892C7.30321 4.97781 7.36759 5.21383 7.35533 5.4008L6.94452 7.04371C6.96905 7.04984 6.9997 7.05904 7.03649 7.07436L6.94452 7.04984L6.37123 9.34869C6.32831 9.45597 6.21795 9.61843 5.96962 9.55712C5.97882 9.56938 5.33195 9.39774 5.33195 9.39774L4.89355 10.4031L6.03707 10.6882C6.2486 10.7403 6.45707 10.7954 6.66247 10.8506L6.29765 12.3096L7.17445 12.5272L7.53314 11.0836C7.77226 11.1479 8.00526 11.2092 8.23212 11.2644L7.87343 12.702L8.75023 12.9196L9.11505 11.4636C10.6111 11.7456 11.7393 11.6322 12.2114 10.2805C12.5946 9.18931 12.193 8.56096 11.4051 8.15023C11.9815 8.01843 12.4138 7.63835 12.5272 6.85981ZM10.5222 9.6736C10.2524 10.7648 8.41607 10.1732 7.82132 10.0261L8.30263 8.09505C8.89738 8.24218 10.8073 8.53643 10.5222 9.6736ZM10.7951 6.84448C10.5467 7.83452 9.02001 7.33184 8.52337 7.20923L8.96176 5.45597C9.45534 5.57858 11.0526 5.81153 10.7951 6.84448Z" fill="white"/>
</svg>
