<svg width="13" height="8" viewBox="0 0 13 8" fill="none" xmlns="http://www.w3.org/2000/svg">
<path opacity="0.5" d="M12.9071 1.81818C12.1643 2.63636 10.7714 3.45455 9.28571 3.45455C7.89286 3.45455 7.05714 3 6.31429 2.63636C5.57143 2.36364 4.82857 1.90909 3.62143 1.90909C2.50714 1.90909 1.48571 2.54545 0.928571 3.09091L0 1.72727C0.835714 0.909091 2.13571 0 3.62143 0C5.01429 0 5.85 0.545455 6.59286 0.818182C7.33571 1.09091 8.07857 1.63636 9.28571 1.63636C10.4 1.63636 11.4214 0.909091 11.9786 0.363636L12.9071 1.81818ZM13 6.27273C12.1643 7.09091 10.8643 8 9.37857 8C7.98571 8 7.15 7.54545 6.40714 7.18182C5.66429 6.90909 4.92143 6.36364 3.71429 6.36364C2.6 6.36364 1.57857 7.09091 1.02143 7.63636L0.0928571 6.18182C0.928571 5.36364 2.22857 4.45455 3.71429 4.45455C5.10714 4.45455 5.94286 4.90909 6.68571 5.27273C7.42857 5.54545 8.17143 6 9.37857 6C10.4929 6 11.5143 5.27273 12.0714 4.72727L13 6.27273Z" fill="white"/>
</svg>
