<svg width="26" height="22" viewBox="0 0 26 22" fill="none" xmlns="http://www.w3.org/2000/svg">
<path d="M0.571385 11.8301C0.339498 12.0668 0.343414 12.4467 0.580132 12.6786C0.81685 12.9105 1.19673 12.9066 1.42862 12.6699L0.571385 11.8301ZM24.5714 12.6699C24.8033 12.9066 25.1832 12.9105 25.4199 12.6786C25.6566 12.4467 25.6605 12.0668 25.4286 11.8301L24.5714 12.6699ZM14.4287 1.45848L14.0001 1.87835L14.4287 1.45848ZM1.42862 12.6699L11.9999 1.87835L11.1427 1.03861L0.571385 11.8301L1.42862 12.6699ZM14.0001 1.87835L24.5714 12.6699L25.4286 11.8301L14.8573 1.03861L14.0001 1.87835ZM11.9999 1.87835C12.5489 1.31794 13.4511 1.31794 14.0001 1.87835L14.8573 1.03861C13.8378 -0.00214909 12.1622 -0.00214844 11.1427 1.03861L11.9999 1.87835Z" fill="white"/>
<path d="M4.42871 8.75V19C4.42871 20.1046 5.32414 21 6.42871 21H19.5716C20.6761 21 21.5716 20.1046 21.5716 19V8.75" stroke="white" stroke-width="1.2"/>
<path d="M16.4287 20.125L16.4287 14.25C16.4287 13.1454 15.5333 12.25 14.4287 12.25L11.5716 12.25C10.467 12.25 9.57157 13.1454 9.57157 14.25L9.57157 20.125" stroke="white" stroke-width="1.2"/>
</svg>
