<svg width="66" height="30" fill="none" xmlns="http://www.w3.org/2000/svg">
    <path d="M61.847 27.286c-.425 0-.85-.179-1.205-.465L45.225 13.93 58.16 3.143c.355-.322.78-.464 1.206-.464h5.139V0h-5.104a4.562 4.562 0 00-2.906 1.071L43.169 12.18 29.843 1.07A4.508 4.508 0 0026.936 0H17.12v2.679h4.785c.07.035.106.071.177.107l16.197 13.571-12.582 10.464c-.355.322-.78.465-1.205.465H13.68l-.248-23.107C13.433 1.464 11.448 0 10.03 0H0v2.679h7.266v24.607H0V30h24.456a4.563 4.563 0 002.906-1.071l12.972-10.822L53.377 29c.78.643 1.665 1 2.622 1h9.251v-2.679h-3.403v-.035zm-52.81 0V2.679h.958c.142.035.78.428.78 1.5l.248 23.107H9.038zm45.51.321L24.703 2.68H26.9c.425 0 .85.178 1.205.464L58.02 28.179H56a2.146 2.146 0 01-1.454-.572z"
          fill="url(#paint0_linear)"/>
    <defs>
        <linearGradient id="paint0_linear" x1="-11.677" y1="40.443" x2="101.216" y2="-23.436"
                        gradientUnits="userSpaceOnUse">
            <stop offset=".229" stop-color="#DE5118"/>
            <stop offset=".5" stop-color="#EDA334"/>
            <stop offset=".956" stop-color="#DE1F73"/>
        </linearGradient>
    </defs>
</svg>